<?xml version="1.0" standalone="no"?>
<!DOCTYPE svg PUBLIC "-//W3C//DTD SVG 20010904//EN"
 "http://www.w3.org/TR/2001/REC-SVG-20010904/DTD/svg10.dtd">
<svg version="1.0" xmlns="http://www.w3.org/2000/svg"
 width="3702.000000pt" height="2114.000000pt" viewBox="0 0 3702.000000 2114.000000"
 preserveAspectRatio="xMidYMid meet">

<g transform="translate(0.000000,2114.000000) scale(0.100000,-0.100000)"
fill="#000000" stroke="none">
<path d="M23266 21068 c-25 -7 -57 -29 -85 -57 -42 -42 -124 -212 -840 -1721
-437 -921 -823 -1733 -858 -1805 -35 -71 -68 -150 -74 -174 -21 -93 26 -201
112 -258 25 -17 39 -32 36 -42 -2 -9 -174 -402 -381 -873 -246 -560 -380 -875
-386 -910 -16 -100 12 -182 81 -242 l42 -35 -53 -128 c-167 -408 -413 -999
-416 -1002 -3 -3 -53 3 -112 13 -656 107 -1310 175 -1959 202 l-163 7 0 117 0
116 153 23 c191 27 440 82 579 127 163 53 261 106 339 183 87 88 110 145 117
296 7 175 -20 231 -109 228 -50 -2 -104 -27 -228 -103 -92 -56 -260 -134 -269
-125 -3 2 8 18 22 36 49 58 79 128 73 172 -5 38 -30 77 -50 77 -5 0 -40 -28
-76 -63 -37 -34 -105 -85 -151 -112 -47 -27 -111 -75 -143 -107 -31 -32 -74
-66 -95 -77 -37 -19 -136 -51 -157 -51 -9 0 -14 74 -18 268 -4 147 -12 423
-18 614 l-12 346 36 139 c50 192 60 270 46 347 -27 152 -132 251 -321 304 -52
14 -102 17 -286 16 l-223 -2 3 92 c2 57 7 90 14 89 5 -1 60 -5 121 -9 139 -8
201 8 272 72 65 58 106 140 141 280 43 176 53 267 52 498 0 115 4 219 8 232 8
20 4 24 -28 37 -20 8 -77 24 -127 35 -397 92 -935 22 -1318 -170 -56 -28 -77
-43 -73 -54 3 -7 9 -21 12 -29 4 -10 -2 -18 -17 -24 -56 -21 -99 -97 -99 -173
0 -133 99 -270 216 -299 41 -11 42 -12 59 -77 20 -72 64 -131 115 -152 l29
-12 3 -203 3 -203 -55 -7 c-30 -3 -116 -15 -190 -26 -74 -10 -157 -19 -183
-19 -110 0 -287 -53 -377 -113 -65 -43 -232 -216 -326 -337 -145 -186 -496
-697 -616 -895 -183 -303 -235 -451 -193 -552 42 -100 235 -323 658 -760 123
-126 125 -116 -23 -133 -110 -12 -431 -65 -704 -116 -660 -122 -1407 -321
-1986 -529 -102 -37 -204 -74 -228 -82 -24 -9 -40 -19 -35 -23 4 -4 818 -474
1808 -1045 990 -570 1802 -1039 1804 -1041 2 -2 -12 -25 -31 -51 -20 -26 -234
-367 -478 -758 -243 -390 -485 -774 -537 -852 -84 -126 -99 -143 -123 -143
-36 0 -136 -67 -225 -150 -38 -36 -82 -72 -98 -80 -15 -7 -39 -29 -54 -48 -23
-30 -26 -44 -26 -106 1 -39 9 -100 19 -136 14 -52 18 -109 20 -280 2 -169 6
-236 22 -311 36 -172 126 -325 245 -414 76 -58 95 -67 179 -93 189 -59 403
-26 450 68 21 42 15 50 -16 21 -46 -43 -208 -50 -345 -14 -115 29 -251 127
-322 230 -23 33 -28 47 -20 62 21 39 125 122 198 158 l77 38 135 0 c119 0 142
-3 183 -22 l47 -21 -20 51 c-11 29 -23 55 -27 59 -13 13 -162 38 -225 38 -35
0 -87 -4 -116 -10 -28 -5 -58 -7 -66 -4 -22 9 -31 53 -14 69 17 17 186 38 246
30 24 -3 63 -7 87 -10 l43 -6 -13 52 c-8 29 -15 54 -18 56 -11 12 -190 14
-251 4 -63 -11 -70 -11 -88 7 -23 23 -16 58 14 67 38 12 179 22 247 17 l69 -4
6 38 c4 21 4 40 2 42 -20 20 -211 28 -279 12 -54 -12 -78 2 -74 43 3 27 8 32
38 39 46 11 234 13 286 4 l41 -7 6 37 c3 20 16 70 28 111 l22 75 711 704 711
704 17 -87 c95 -481 232 -938 522 -1736 63 -174 129 -372 146 -439 27 -110 29
-123 15 -138 -13 -15 -16 -49 -17 -201 0 -263 0 -277 16 -307 21 -41 97 -107
158 -138 38 -19 93 -68 193 -169 186 -190 304 -266 459 -296 80 -15 197 -11
280 11 91 23 226 91 272 136 29 30 53 88 41 100 -3 3 -27 -11 -54 -30 -182
-131 -390 -156 -615 -74 -70 25 -71 34 -30 154 35 101 91 184 156 237 51 40
145 88 201 102 l30 7 -44 22 c-37 19 -51 22 -90 14 -73 -13 -168 -65 -226
-124 -56 -57 -87 -67 -105 -34 -24 44 62 136 187 199 l73 36 -36 29 c-28 22
-43 27 -69 23 -55 -9 -137 -53 -197 -107 -31 -27 -62 -50 -70 -50 -21 0 -38
21 -38 46 0 33 103 121 187 162 l73 34 -28 39 c-30 43 -32 44 -125 9 -29 -11
-81 -42 -115 -70 -64 -52 -91 -60 -112 -35 -18 21 -4 50 47 95 50 43 174 110
205 110 11 0 18 3 16 8 -34 79 -106 202 -119 202 -13 0 -20 20 -33 88 -18 98
-229 1912 -223 1919 2 2 1709 -980 3793 -2183 2084 -1203 3828 -2209 3877
-2237 l87 -49 43 35 c166 136 502 492 683 722 94 121 285 405 356 530 243 429
394 886 449 1360 17 142 17 518 0 660 -122 1048 -709 1999 -1751 2834 -80 64
-182 143 -228 176 -80 59 -82 60 -55 68 43 12 124 0 251 -39 103 -32 126 -35
191 -31 134 10 252 91 312 214 19 41 24 70 29 193 5 128 8 151 32 201 53 115
145 186 278 215 102 22 172 58 226 116 85 91 123 224 95 335 -7 26 -170 427
-362 891 l-349 844 30 34 c45 52 65 134 51 209 -7 40 -136 353 -376 910 -201
467 -365 855 -365 862 0 7 24 28 54 47 100 64 148 164 125 264 -5 23 -383 829
-840 1790 -933 1960 -893 1879 -923 1910 -50 55 -145 81 -220 60z m-7125
-5788 c7 -140 13 -267 13 -281 -1 -54 -48 -774 -50 -778 -2 -2 -22 11 -46 28
-23 17 -47 31 -54 31 -38 0 -456 622 -442 659 1 5 127 158 278 339 l275 331 7
-37 c3 -20 12 -152 19 -292z m949 -630 c22 -6 38 -6 44 0 19 19 74 11 105 -16
23 -19 31 -34 31 -59 0 -19 5 -37 10 -40 21 -13 50 -85 50 -122 -1 -83 -77
-114 -187 -77 -146 49 -257 192 -213 273 22 43 92 60 160 41z m-261 -146 c29
-6 31 -9 31 -49 0 -48 31 -97 95 -154 77 -67 201 -99 263 -68 l31 15 23 -46
c29 -60 31 -160 4 -212 -28 -54 -94 -118 -167 -160 -110 -65 -180 -163 -195
-273 l-7 -48 -26 24 c-39 37 -77 53 -171 72 -168 34 -326 108 -380 177 -12 15
-24 42 -27 61 -5 30 -1 35 52 71 111 77 155 155 174 306 6 45 20 102 31 128
50 112 162 177 269 156z m-814 -1109 c71 -103 182 -207 262 -247 66 -32 71
-33 193 -33 142 0 211 17 292 71 26 18 48 30 48 27 0 -16 -296 -462 -325 -490
-77 -73 -254 -63 -415 24 -200 108 -331 291 -302 421 10 42 183 316 193 304 3
-4 27 -38 54 -77z"/>
<path d="M17096 14588 c-14 -25 -26 -54 -26 -65 0 -29 43 -64 87 -70 39 -5 41
-4 71 45 17 28 25 49 18 46 -24 -9 -85 24 -105 56 l-19 32 -26 -44z"/>
<path d="M17180 14615 c0 -8 9 -19 19 -25 27 -14 40 9 16 27 -24 17 -35 17
-35 -2z"/>
<path d="M12436 20104 c-74 -18 -205 -79 -287 -134 -94 -63 -234 -210 -316
-331 -81 -119 -165 -280 -229 -439 -24 -58 -46 -104 -51 -103 -4 1 -62 38
-128 83 -66 44 -142 87 -169 95 -140 42 -309 -7 -505 -145 -292 -207 -538
-641 -617 -1090 -24 -139 -25 -398 -1 -526 48 -262 135 -433 306 -604 109
-108 203 -177 376 -275 66 -38 168 -97 227 -132 131 -78 283 -151 403 -193 85
-30 443 -120 475 -120 15 0 299 388 472 646 242 359 532 863 667 1157 l41 89
-33 -19 c-277 -164 -507 -293 -519 -293 -43 0 -56 31 -143 355 -47 175 -87
320 -88 321 -1 1 -78 -343 -170 -764 -177 -807 -175 -802 -228 -802 -10 0 -27
8 -36 18 -10 9 -83 196 -163 414 -79 219 -147 394 -151 390 -4 -4 -39 -124
-79 -267 -47 -169 -79 -266 -91 -276 -18 -16 -633 -374 -662 -384 -9 -4 -28
10 -52 40 -21 25 -36 47 -34 49 2 1 146 84 319 184 173 100 320 185 327 190 6
4 55 162 108 352 53 190 103 355 111 368 15 23 56 30 82 14 14 -9 44 -86 202
-520 57 -155 104 -281 106 -279 2 1 78 344 169 762 91 418 170 774 176 792 15
46 71 60 101 26 8 -10 64 -198 123 -418 60 -220 110 -401 111 -403 1 -2 134
73 296 166 335 193 300 158 373 378 86 255 131 489 142 730 13 283 -44 489
-170 611 -58 57 -411 267 -486 290 -57 17 -229 16 -305 -3z"/>
<path d="M17517 18994 c-31 -10 -65 -31 -93 -60 l-45 -45 -56 27 c-44 22 -69
27 -127 27 -81 0 -126 -16 -180 -63 -45 -40 -74 -95 -83 -156 -5 -41 -8 -45
-27 -39 -51 16 -126 17 -170 2 -64 -22 -106 -57 -145 -122 -29 -47 -35 -68
-39 -131 -4 -69 -7 -77 -34 -97 -15 -11 -35 -32 -44 -45 -19 -29 -36 -175 -20
-168 6 3 56 25 111 49 299 133 630 196 969 184 181 -7 307 -27 435 -69 l72
-25 -6 24 c-4 18 2 30 29 54 19 17 49 58 66 91 24 49 30 74 30 126 0 96 -17
139 -76 199 -56 56 -97 73 -181 73 -49 0 -54 2 -69 33 -58 115 -193 171 -317
131z"/>
<path d="M17260 18314 c-197 -24 -405 -70 -550 -124 -125 -46 -270 -117 -270
-132 0 -19 20 -88 26 -88 2 0 39 17 82 39 165 83 362 144 592 183 152 27 502
32 635 9 70 -12 207 -47 258 -66 15 -6 17 -1 17 38 l0 44 -93 31 c-148 49
-250 64 -467 67 -107 2 -211 1 -230 -1z"/>
<path d="M8382 9243 c-106 -572 -72 -1080 108 -1623 111 -335 231 -583 438
-899 1037 -1592 3347 -2820 6187 -3290 965 -160 2023 -232 2997 -203 367 11
825 35 833 44 2 2 -10511 6076 -10535 6086 -4 1 -16 -50 -28 -115z"/>
</g>
</svg>
