<?xml version="1.0" standalone="no"?>
<!DOCTYPE svg PUBLIC "-//W3C//DTD SVG 20010904//EN"
 "http://www.w3.org/TR/2001/REC-SVG-20010904/DTD/svg10.dtd">
<svg version="1.0" xmlns="http://www.w3.org/2000/svg"
 width="800.000000pt" height="395.000000pt" viewBox="0 0 800.000000 395.000000"
 preserveAspectRatio="xMidYMid meet">

<g transform="translate(0.000000,395.000000) scale(0.100000,-0.100000)"
fill="#000000" stroke="none">
<path d="M2358 3403 c-14 -16 -54 -170 -296 -1130 -37 -144 -70 -259 -73 -255
-4 4 -62 160 -129 347 -160 448 -151 423 -172 451 -24 29 -68 32 -92 5 -9 -10
-71 -191 -137 -402 -66 -211 -130 -418 -143 -459 l-23 -75 -231 -5 c-208 -5
-232 -7 -251 -24 -27 -24 -27 -70 -1 -96 19 -19 33 -20 287 -20 233 0 269 2
285 16 10 10 34 69 54 133 19 64 57 186 84 271 27 85 66 211 87 279 l39 124
46 -129 c26 -71 87 -241 136 -379 133 -370 125 -355 186 -355 35 0 49 27 79
145 14 55 87 343 162 640 75 297 137 541 139 542 1 1 12 -57 25 -130 12 -73
36 -206 52 -297 36 -201 212 -1208 235 -1340 20 -117 33 -140 79 -140 18 0 40
6 47 13 7 7 73 138 147 290 132 271 136 277 170 287 20 5 46 10 58 10 l23 0 2
-402 3 -403 70 0 70 0 3 403 2 402 24 0 c41 0 112 -26 160 -59 25 -18 51 -29
56 -26 6 3 10 44 10 89 l0 84 -47 20 c-85 36 -125 42 -279 42 -195 0 -241 -12
-285 -76 -17 -25 -69 -123 -114 -216 -58 -120 -84 -165 -88 -152 -4 10 -20
100 -37 199 -18 99 -42 240 -56 314 -14 78 -24 173 -24 226 0 83 3 95 28 136
38 59 104 114 160 133 25 9 79 16 119 16 l73 0 0 -205 0 -206 73 3 72 3 0 480
0 480 -64 3 c-35 2 -68 -1 -73 -6 -5 -5 -10 -96 -11 -203 l-2 -194 -100 -6
c-127 -7 -176 -25 -275 -100 -64 -48 -65 -48 -84 59 -18 100 -65 366 -110 627
-35 202 -36 203 -53 220 -20 21 -76 19 -95 -2z"/>
<path d="M3795 3000 c-160 -34 -282 -129 -352 -276 -30 -63 -36 -89 -41 -162
-9 -159 31 -267 137 -373 119 -119 224 -152 461 -147 l135 3 3 69 c2 49 -1 72
-10 77 -7 5 -83 9 -168 9 -150 0 -157 1 -215 29 -82 38 -155 119 -179 198 l-7
23 283 2 283 3 0 70 0 70 -283 3 -283 2 7 23 c25 81 101 164 186 202 57 26 74
28 225 33 l164 5 -3 71 -3 71 -150 2 c-82 0 -168 -3 -190 -7z"/>
<path d="M4945 3000 c-119 -18 -223 -63 -332 -143 -124 -92 -230 -255 -273
-422 -22 -85 -29 -283 -12 -355 l8 -35 64 0 65 0 -1 30 c-1 17 -5 64 -9 106
-4 42 -5 93 -1 113 l7 36 221 -2 220 -3 -1 -131 c-2 -155 -2 -156 91 -152 l63
3 0 480 0 480 -30 1 c-16 1 -52 -2 -80 -6z m-45 -340 l0 -180 -195 0 c-136 0
-195 3 -195 11 0 6 15 39 33 72 48 90 149 187 248 236 45 23 88 41 95 41 11 0
14 -33 14 -180z"/>
<path d="M5237 3003 c-11 -11 -8 -505 4 -569 35 -193 198 -350 398 -384 38 -6
86 -10 107 -8 l39 3 3 69 c4 82 0 86 -80 86 -123 0 -240 78 -295 195 l-28 60
-3 269 c-1 147 -5 272 -8 277 -6 10 -127 12 -137 2z"/>
<path d="M5895 3004 c-64 -14 -114 -29 -147 -46 l-38 -18 0 -85 c0 -92 9 -108
43 -77 34 32 128 72 170 72 l37 0 0 -397 c-1 -221 3 -400 8 -405 5 -5 38 -8
73 -6 l64 3 3 403 2 402 30 0 c39 0 119 -31 161 -62 51 -38 59 -29 59 66 l0
83 -57 26 c-32 14 -82 30 -111 36 -50 10 -254 13 -297 5z"/>
<path d="M6535 2998 c-3 -7 -4 -224 -3 -483 l3 -470 70 0 70 0 5 105 c4 91 9
111 32 151 57 97 151 149 271 149 l77 0 0 -205 0 -206 73 3 72 3 0 480 0 480
-70 0 -70 0 -5 -200 -5 -200 -100 -5 c-103 -6 -172 -28 -245 -80 l-30 -21 -2
253 -3 253 -68 3 c-48 2 -69 -1 -72 -10z"/>
<path d="M6532 1872 c-9 -7 -12 -110 -10 -483 l3 -474 73 -3 72 -3 0 181 c0
99 3 180 8 180 4 0 19 -19 34 -43 54 -86 180 -195 288 -252 66 -34 189 -70
201 -58 6 6 9 38 7 73 l-3 63 -40 12 c-76 22 -186 88 -249 149 -55 53 -126
147 -126 167 0 3 30 24 67 45 136 78 277 240 332 380 25 65 17 74 -64 74 l-61
0 -23 -47 c-38 -79 -108 -169 -168 -219 -72 -58 -191 -120 -198 -102 -3 7 -6
92 -7 188 l-3 175 -60 3 c-33 1 -66 -2 -73 -6z"/>
<path d="M3820 1390 l0 -481 73 3 72 3 3 158 3 157 24 0 c19 0 30 -10 49 -48
39 -77 99 -146 166 -191 70 -46 181 -84 232 -79 l33 3 3 70 3 70 -62 12 c-71
13 -153 63 -195 118 -30 40 -27 46 31 63 63 18 129 67 168 125 48 71 60 116
55 202 -8 119 -72 211 -187 267 -43 21 -62 23 -258 26 l-213 3 0 -481z m406
311 c123 -56 136 -213 23 -288 -40 -26 -51 -28 -161 -32 l-118 -3 0 171 0 171
108 0 c83 0 116 -5 148 -19z"/>
<path d="M5212 1850 c-252 -67 -460 -285 -527 -555 -19 -76 -26 -257 -12 -338
l8 -48 67 3 67 3 -5 45 c-3 25 -5 88 -5 140 l0 95 222 3 222 2 3 -142 3 -143
73 -3 72 -3 0 471 c0 258 1 473 3 478 5 16 -121 11 -191 -8z m38 -320 l0 -180
-200 0 c-110 0 -200 3 -200 7 0 4 18 36 39 72 69 116 175 210 291 258 30 12
58 23 63 23 4 0 7 -81 7 -180z"/>
<path d="M5950 1857 c-126 -35 -247 -134 -304 -247 -138 -276 6 -597 305 -684
44 -13 92 -16 220 -14 l164 3 0 70 0 70 -170 5 c-196 7 -231 17 -313 94 -94
88 -128 222 -87 346 23 69 107 160 177 191 47 21 73 24 223 29 l170 5 0 70 0
70 -170 2 c-110 1 -186 -2 -215 -10z"/>
</g>
</svg>
