<?xml version="1.0" standalone="no"?>
<!DOCTYPE svg PUBLIC "-//W3C//DTD SVG 20010904//EN"
 "http://www.w3.org/TR/2001/REC-SVG-20010904/DTD/svg10.dtd">
<svg version="1.0" xmlns="http://www.w3.org/2000/svg"
 width="800.000000pt" height="395.000000pt" viewBox="0 0 800.000000 395.000000"
 preserveAspectRatio="xMidYMid meet">

<g transform="translate(0.000000,395.000000) scale(0.100000,-0.100000)"
fill="#000000" stroke="none">
<path d="M2357 3403 c-11 -13 -259 -961 -357 -1368 -5 -21 -9 -25 -13 -15 -9
21 -105 286 -199 550 -44 124 -89 235 -101 248 -25 27 -68 29 -92 2 -9 -10
-64 -169 -122 -352 -57 -183 -122 -390 -144 -460 l-40 -128 -223 0 c-211 0
-225 -1 -250 -21 -32 -25 -35 -70 -6 -99 19 -19 33 -20 288 -20 254 0 270 1
287 20 9 10 70 187 134 392 65 205 119 379 122 387 6 16 19 -19 184 -479 74
-205 124 -331 137 -343 29 -25 74 -22 93 6 13 21 67 224 277 1060 l63 249 22
-129 c11 -70 30 -180 41 -243 79 -444 156 -886 177 -1000 74 -425 88 -497 101
-517 18 -29 77 -32 100 -5 8 10 72 137 142 282 71 145 137 269 147 276 11 7
39 16 63 20 l42 7 0 -401 c0 -280 3 -403 11 -408 6 -3 37 -6 69 -6 32 0 63 3
69 6 8 5 11 128 11 408 l0 400 38 -7 c52 -9 127 -43 148 -66 9 -10 25 -19 36
-19 16 0 18 9 18 89 l0 89 -35 16 c-82 39 -123 48 -250 53 -135 5 -259 -11
-292 -39 -26 -22 -64 -86 -149 -258 -48 -98 -84 -159 -87 -150 -20 53 -110
621 -114 715 l-5 110 39 55 c42 60 113 113 171 130 20 5 65 10 99 10 l63 0 2
-202 3 -203 68 -5 c37 -3 72 -1 78 4 14 15 12 953 -2 962 -6 3 -37 6 -69 6
-32 0 -63 -3 -69 -6 -7 -5 -11 -71 -11 -200 l0 -193 -87 -6 c-106 -7 -177 -31
-263 -92 -58 -41 -90 -55 -90 -39 0 21 -153 875 -161 901 -5 17 -17 34 -25 37
-30 11 -71 6 -87 -11z"/>
<path d="M3945 3009 c-140 -4 -179 -9 -222 -26 -84 -33 -134 -67 -194 -130
-100 -104 -134 -200 -127 -358 4 -90 8 -108 41 -176 62 -130 181 -227 321
-263 65 -17 352 -24 368 -8 5 5 8 40 6 78 l-3 69 -175 5 c-171 5 -176 6 -228
35 -83 45 -144 120 -164 200 -2 6 98 12 277 15 l280 5 0 70 0 70 -280 5 c-308
5 -290 1 -258 67 26 56 91 121 151 150 54 26 66 28 227 33 l170 5 3 71 c2 49
-1 74 -10 80 -7 5 -87 7 -183 3z"/>
<path d="M4954 3004 c-257 -42 -457 -195 -569 -437 -54 -116 -69 -192 -68
-342 1 -71 5 -143 10 -159 8 -27 12 -28 71 -30 76 -1 78 3 62 111 -7 42 -9
100 -5 130 l6 53 220 0 219 0 0 -139 c0 -91 4 -142 11 -147 14 -8 124 -8 138
0 17 11 15 950 -1 963 -9 6 -42 5 -94 -3z m-54 -344 l0 -180 -195 0 c-154 0
-195 3 -195 13 0 25 71 132 123 185 65 67 125 109 197 139 30 12 58 23 63 23
4 0 7 -81 7 -180z"/>
<path d="M5239 3006 c-5 -6 -9 -122 -9 -276 0 -207 3 -279 15 -325 41 -156
157 -282 310 -336 73 -26 212 -40 226 -23 5 7 9 43 7 81 l-3 68 -80 6 c-133
10 -231 73 -286 184 -23 49 -24 56 -27 330 -2 154 -7 284 -12 289 -12 12 -129
13 -141 2z"/>
<path d="M6539 3006 c-14 -15 -12 -953 2 -962 14 -9 114 -9 128 0 7 5 11 44
11 105 0 98 0 99 40 158 66 99 151 143 276 143 l64 0 2 -206 3 -206 62 0 c33
0 66 3 72 6 16 10 15 952 0 962 -6 3 -35 7 -64 7 -29 0 -58 -4 -64 -7 -7 -5
-11 -70 -11 -200 l0 -193 -87 -6 c-99 -6 -167 -25 -234 -68 -25 -16 -49 -29
-52 -29 -4 0 -7 110 -7 244 0 166 -4 247 -11 252 -17 10 -119 10 -130 0z"/>
<path d="M5840 2994 c-30 -8 -71 -23 -90 -33 l-35 -18 -3 -83 c-2 -46 1 -87 7
-93 6 -6 22 0 45 18 40 31 125 65 161 65 l25 0 0 -392 c0 -216 4 -399 9 -407
9 -14 119 -20 140 -7 8 5 11 128 11 408 l0 401 45 -6 c49 -7 118 -38 151 -68
12 -12 28 -17 37 -13 14 5 17 21 17 91 l0 84 -47 21 c-27 12 -70 27 -98 34
-69 19 -303 17 -375 -2z"/>
<path d="M3823 1869 c-18 -18 -19 -939 -1 -957 19 -19 134 -16 142 4 3 9 6 83
6 165 l0 149 24 0 c19 0 29 -11 52 -57 67 -139 235 -253 389 -265 l40 -3 5 77
5 77 -45 6 c-69 10 -145 49 -195 100 -25 26 -45 50 -45 55 0 4 23 15 52 25
144 47 227 159 228 305 0 133 -70 239 -199 298 -53 25 -66 26 -251 30 -150 3
-198 1 -207 -9z m380 -160 c48 -13 103 -68 118 -119 17 -56 0 -108 -50 -153
-50 -45 -93 -57 -208 -57 l-93 0 0 170 0 170 98 0 c53 0 114 -5 135 -11z"/>
<path d="M5305 1870 c-232 -28 -450 -185 -557 -403 -65 -130 -83 -211 -82
-372 0 -180 3 -187 78 -187 32 -1 62 4 67 9 7 7 7 30 0 69 -12 63 -15 163 -5
188 5 14 35 16 225 16 l219 0 0 -134 c0 -87 4 -137 11 -142 14 -8 124 -8 138
0 8 5 11 147 11 475 0 470 -2 494 -34 490 -6 -1 -38 -5 -71 -9z m-55 -340 l0
-180 -201 0 -200 0 33 63 c51 97 166 207 268 257 46 22 88 40 92 40 4 0 8 -81
8 -180z"/>
<path d="M6527 1873 c-12 -12 -8 -951 4 -959 6 -3 37 -6 69 -6 32 0 63 3 69 6
7 5 11 66 11 179 1 154 2 170 15 152 125 -170 268 -275 433 -321 77 -22 84
-16 84 66 l0 62 -64 22 c-127 42 -253 140 -324 252 -19 29 -34 55 -34 58 0 3
26 19 58 36 76 40 163 112 224 186 57 69 142 233 132 257 -5 14 -20 17 -74 17
l-69 0 -32 -67 c-43 -88 -177 -225 -265 -271 -34 -18 -67 -32 -73 -32 -8 0
-11 52 -11 169 0 93 -3 176 -6 185 -5 12 -21 16 -73 16 -37 0 -71 -3 -74 -7z"/>
<path d="M5924 1851 c-240 -82 -381 -336 -319 -576 43 -163 167 -295 325 -346
51 -17 100 -22 225 -26 190 -6 188 -7 183 89 l-3 63 -165 6 c-150 5 -170 7
-221 31 -73 33 -128 84 -165 150 -26 48 -29 62 -29 148 0 80 4 102 23 138 36
67 98 129 161 159 52 25 67 27 226 33 l170 5 0 70 0 70 -180 2 c-149 1 -189
-1 -231 -16z"/>
</g>
</svg>
